<?xml version="1.0" encoding="UTF-8" standalone="no"?>
<svg
   version="1.1"
   width="71.345581"
   height="75.236359"
   viewBox="0 0 71.345581 75.236359"
   xml:space="preserve"
   id="svg1000"
   sodipodi:docname="icon.svg"
   inkscape:version="1.2.1 (9c6d41e410, 2022-07-14)"
   xmlns:inkscape="http://www.inkscape.org/namespaces/inkscape"
   xmlns:sodipodi="http://sodipodi.sourceforge.net/DTD/sodipodi-0.dtd"
   xmlns="http://www.w3.org/2000/svg"
   xmlns:svg="http://www.w3.org/2000/svg"><sodipodi:namedview
   id="namedview1002"
   pagecolor="#505050"
   bordercolor="#eeeeee"
   borderopacity="1"
   inkscape:showpageshadow="0"
   inkscape:pageopacity="0"
   inkscape:pagecheckerboard="0"
   inkscape:deskcolor="#505050"
   showgrid="false"
   inkscape:zoom="5.6820932"
   inkscape:cx="5.4557359"
   inkscape:cy="51.03753"
   inkscape:window-width="1920"
   inkscape:window-height="1009"
   inkscape:window-x="1912"
   inkscape:window-y="-5"
   inkscape:window-maximized="1"
   inkscape:current-layer="svg1000" />
<desc
   id="desc914">Created with Fabric.js 3.6.3</desc>
<defs
   id="defs916" />
<g
   transform="matrix(0.83846456,0,0,0.83846456,35.67279,36.28748)"
   id="g932"
   inkscape:export-filename="icon.png"
   inkscape:export-xdpi="96"
   inkscape:export-ydpi="96">
<g
   id="g930">
		<g
   transform="translate(-1.6281738,-9.0800781)"
   id="g920">
<path
   style="opacity:1;fill:#0c9cdb;fill-rule:nonzero;stroke:none;stroke-width:1;stroke-linecap:butt;stroke-linejoin:miter;stroke-miterlimit:4;stroke-dasharray:none;stroke-dashoffset:0"
   transform="translate(-28.371826,-20.919922)"
   d="m 38.870606,20.919922 c 0,-5.789063 -4.709961,-10.499024 -10.499024,-10.499024 -5.789062,0 -10.498535,4.709961 -10.498535,10.499024 0,5.790039 4.709473,10.499023 10.498535,10.499023 5.789063,0 10.499024,-4.708984 10.499024,-10.499023 z m -10.499024,8.229492 c -4.537598,0 -8.228516,-3.692383 -8.228516,-8.229492 0,-4.538086 3.690918,-8.228516 8.228516,-8.228516 4.536621,0 8.228516,3.69043 8.228516,8.228516 0,4.537109 -3.691895,8.229492 -8.228516,8.229492 z"
   stroke-linecap="round"
   id="path918" />
</g>
		<g
   id="g924">
<path
   style="opacity:1;fill:#0c9cdb;fill-rule:nonzero;stroke:none;stroke-width:1;stroke-linecap:butt;stroke-linejoin:miter;stroke-miterlimit:4;stroke-dasharray:none;stroke-dashoffset:0"
   transform="translate(-30,-30)"
   d="m 44.943848,29.894531 c 1.631836,-3.972656 2.439453,-7.017578 2.439453,-9.257812 C 47.383301,10.15332 38.853516,1.625 28.371582,1.625 c -10.48291,0 -19.0107422,8.52832 -19.0107422,19.011719 0,10.100586 17.3295902,36.130859 18.0678712,37.234375 0.210449,0.314453 0.563965,0.503906 0.942871,0.503906 0.379394,0 0.73291,-0.189453 0.943848,-0.503906 0.02539,-0.03809 2.335937,-3.501953 5.258789,-8.322266 2.205566,4.021484 4.57666,7.607422 5.054199,8.322266 0.210938,0.314453 0.564453,0.503906 0.943359,0.503906 0.379395,0 0.73291,-0.189453 0.94336,-0.503906 0.93457,-1.396485 9.124023,-13.792969 9.124023,-18.921875 0,-3.983399 -2.331054,-7.424805 -5.695312,-9.054688 z M 28.371582,55.168945 C 24.707519,49.517578 11.630371,28.774414 11.630371,20.636719 c 0,-9.230469 7.509766,-16.7421878 16.741211,-16.7421878 9.230957,0 16.741211,7.5117188 16.741211,16.7421878 0,1.935547 -0.784668,4.798828 -2.311523,8.501953 -0.71875,-0.163086 -1.462403,-0.256836 -2.229493,-0.256836 -5.550781,0 -10.067871,4.516601 -10.067871,10.067383 0,2.004882 1.253907,5.120117 2.833496,8.253906 -2.067871,3.451172 -3.909668,6.337891 -4.96582,7.96582 z m 12.200195,-0.0059 C 37.756348,50.76656 32.774414,42.294881 32.774414,38.949178 c 0,-4.299805 3.498047,-7.797852 7.797363,-7.797852 4.299317,0 7.797852,3.498047 7.797852,7.797852 0,3.34375 -4.980957,11.816406 -7.797852,16.213867 z"
   stroke-linecap="round"
   id="path922" />
</g>
		<g
   transform="translate(10.572266,9.090332)"
   id="g928">
<path
   style="opacity:1;fill:#0c9cdb;fill-rule:nonzero;stroke:none;stroke-width:1;stroke-linecap:butt;stroke-linejoin:miter;stroke-miterlimit:4;stroke-dasharray:none;stroke-dashoffset:0"
   transform="translate(-40.572266,-39.090332)"
   d="m 40.571777,33.276367 c -3.205078,0 -5.813476,2.607422 -5.813476,5.814453 0,3.206055 2.608398,5.813477 5.813476,5.813477 3.206543,0 5.814453,-2.607422 5.814453,-5.813477 1e-6,-3.207031 -2.60791,-5.814453 -5.814453,-5.814453 z m 0,9.358399 c -1.954101,0 -3.543457,-1.588868 -3.543457,-3.543946 0,-1.954101 1.589356,-3.543945 3.543457,-3.543945 1.954102,0 3.544922,1.589844 3.544922,3.543945 0,1.955078 -1.59082,3.543946 -3.544922,3.543946 z"
   stroke-linecap="round"
   id="path926" />
</g>
</g>
</g>
<g
   transform="matrix(0.71345588,0,0,-1.4121148,35.67279,73.11817)"
   id="g994">
<line
   style="opacity:1;fill:#0c9cdb;fill-rule:nonzero;stroke:#0c9cdb;stroke-width:3;stroke-linecap:butt;stroke-linejoin:miter;stroke-miterlimit:4;stroke-dashoffset:0"
   x1="-50"
   y1="0"
   x2="50"
   y2="0"
   id="line992" />
</g>
<g
   transform="matrix(0.71345588,0,0,-1.4121148,35.67279,2.11817)"
   id="g998">
<line
   style="opacity:1;fill:#0c9cdb;fill-rule:nonzero;stroke:#0c9cdb;stroke-width:3;stroke-linecap:butt;stroke-linejoin:miter;stroke-miterlimit:4;stroke-dashoffset:0"
   x1="-50"
   y1="0"
   x2="50"
   y2="0"
   id="line996" />
</g>
</svg>
