<?xml version="1.0" encoding="UTF-8" standalone="no"?>
<svg
   version="1.1"
   width="303.07602"
   height="75.236359"
   viewBox="0 0 303.07602 75.236359"
   xml:space="preserve"
   id="svg124"
   sodipodi:docname="78067950.svg"
   xmlns:inkscape="http://www.inkscape.org/namespaces/inkscape"
   xmlns:sodipodi="http://sodipodi.sourceforge.net/DTD/sodipodi-0.dtd"
   xmlns="http://www.w3.org/2000/svg"
   xmlns:svg="http://www.w3.org/2000/svg"><sodipodi:namedview
   id="namedview126"
   pagecolor="#505050"
   bordercolor="#eeeeee"
   borderopacity="1"
   inkscape:showpageshadow="0"
   inkscape:pageopacity="0"
   inkscape:pagecheckerboard="0"
   inkscape:deskcolor="#505050"
   showgrid="false" />
<desc
   id="desc2">Created with Fabric.js 3.6.3</desc>
<defs
   id="defs4" />
<g
   transform="translate(203.09601,36.87445)"
   id="g40"
   inkscape:export-filename="..\Desktop\houston-smart-travel\public\static\g40.svg"
   inkscape:export-xdpi="96"
   inkscape:export-ydpi="96"><path
     fill="#0c9cdb"
     opacity="1"
     d="m -103.32,-15.73 v -8.58 h 2.32 v 20.06 h -2.32 v -9.5 h -11.72 v 9.5 h -2.32 v -20.06 h 2.32 v 8.58 z"
     id="path6" /><path
     fill="#0c9cdb"
     opacity="1"
     d="m -77.68,-17.78 q 2.43,2.21 2.43,5.81 0,3.61 -2.43,5.82 -2.44,2.21 -6.11,2.21 -3.67,0 -6.11,-2.21 -2.44,-2.21 -2.44,-5.82 0,-3.6 2.44,-5.81 2.44,-2.21 6.11,-2.21 3.67,0 6.11,2.21 z m -10.66,1.34 q -1.74,1.7 -1.74,4.47 0,2.78 1.74,4.48 1.74,1.69 4.55,1.69 2.81,0 4.55,-1.69 1.74,-1.7 1.74,-4.48 0,-2.77 -1.74,-4.47 -1.74,-1.7 -4.55,-1.7 -2.81,0 -4.55,1.7 z"
     id="path8" /><path
     fill="#0c9cdb"
     opacity="1"
     d="m -66.58,-10.67 v -9.01 h 2.23 v 9.04 q 0,2.28 1.06,3.53 1.06,1.25 3.07,1.25 v 0 q 2.1,0 3.47,-0.83 1.37,-0.83 2.48,-2.62 v 0 -10.37 h 2.22 v 15.43 h -1.85 l -0.24,-2.72 q -2.19,3.03 -6.08,3.03 v 0 q -6.36,0 -6.36,-6.73 z"
     id="path10" /><path
     fill="#0c9cdb"
     opacity="1"
     d="m -31.25,-19.09 v 0 l -0.77,1.85 q -2.1,-0.86 -4.6,-0.86 v 0 q -4.26,0 -4.26,2.28 v 0 q 0,1.17 1.05,1.68 1.05,0.51 3.39,0.82 v 0 q 6.02,0.8 6.02,4.84 v 0 q 0,2.28 -1.9,3.41 -1.89,1.13 -5.35,1.13 v 0 q -3.24,0 -5.4,-0.93 v 0 l 0.59,-1.97 q 2.22,0.95 4.69,0.95 v 0 q 5.24,0 5.24,-2.62 v 0 q 0,-1.27 -1.06,-1.9 -1.07,-0.63 -3.57,-0.91 v 0 q -5.86,-0.65 -5.86,-4.38 v 0 q 0,-1.91 1.65,-3.1 1.65,-1.19 4.8,-1.19 v 0 q 3.02,0 5.34,0.9 z"
     id="path12" /><path
     fill="#0c9cdb"
     opacity="1"
     d="m -20.79,-17.7 -2.5,-0.34 v -0.9 l 1.91,-1.17 2.13,-3.36 0.68,0.09 v 3.7 h 6.32 l -0.09,1.98 -6.23,-0.22 v 8.42 q 0,3.58 3.24,3.58 v 0 q 1.85,0 3.42,-0.96 v 0 l 0.83,1.76 q -1.88,1.18 -4.5,1.18 v 0 q -5.21,0 -5.21,-5.53 v 0 z"
     id="path14" /><path
     fill="#0c9cdb"
     opacity="1"
     d="m 10.09,-17.78 q 2.43,2.21 2.43,5.81 0,3.61 -2.43,5.82 -2.44,2.21 -6.11,2.21 -3.67,0 -6.11,-2.21 -2.44,-2.21 -2.44,-5.82 0,-3.6 2.44,-5.81 2.44,-2.21 6.11,-2.21 3.67,0 6.11,2.21 z m -10.66,1.34 q -1.75,1.7 -1.75,4.47 0,2.78 1.75,4.48 1.74,1.69 4.55,1.69 2.81,0 4.55,-1.69 1.74,-1.7 1.74,-4.48 0,-2.77 -1.74,-4.47 -1.74,-1.7 -4.55,-1.7 -2.81,0 -4.55,1.7 z"
     id="path16" /><path
     fill="#0c9cdb"
     opacity="1"
     d="m 21.19,-4.25 v -15.43 h 1.85 l 0.25,2.78 q 2.04,-3.09 6.23,-3.09 v 0 q 3.12,0 4.78,1.73 1.67,1.73 1.67,5 v 0 9.01 h -2.22 v -9.04 q 0,-4.78 -4.23,-4.78 v 0 q -2.13,0 -3.58,0.83 -1.45,0.83 -2.53,2.59 v 0 10.4 z"
     id="path18" /><path
     fill="#0c9cdb"
     opacity="1"
     d="m -104.58,4.82 v 0 l -0.99,1.82 q -2.41,-1.51 -5.31,-1.51 v 0 q -2.16,0 -3.21,0.95 -1.04,0.96 -1.04,2.25 v 0 q 0,1.27 0.83,2.07 0.83,0.8 2.68,1.17 v 0 l 2.93,0.62 q 5.31,1.11 5.31,5.92 v 0 q 0,2.53 -1.99,4.23 -1.99,1.7 -5.69,1.7 v 0 q -2.13,0 -3.66,-0.37 -1.52,-0.37 -3.25,-1.27 v 0 l 0.8,-2.1 q 2.96,1.7 6.05,1.7 v 0 q 2.83,0 4.15,-1.06 1.31,-1.07 1.31,-2.8 v 0 q 0,-1.69 -0.93,-2.6 -0.92,-0.91 -3.11,-1.38 v 0 l -3.24,-0.67 q -1.98,-0.41 -3.18,-1.7 -1.2,-1.3 -1.2,-3.33 v 0 q 0,-2.35 1.71,-3.81 1.71,-1.47 4.73,-1.47 v 0 q 3.64,0 6.3,1.64 z"
     id="path20" /><path
     fill="#0c9cdb"
     opacity="1"
     d="M -95.02,23.64 V 8.21 h 1.82 l 0.22,2.84 q 2.22,-3.15 6.01,-3.15 v 0 q 3.77,0 5.31,3.06 v 0 q 2.5,-3.06 6.32,-3.06 v 0 q 3.09,0 4.57,1.67 1.48,1.66 1.48,5.06 v 0 9.01 h -2.22 v -8.95 q 0,-4.88 -3.83,-4.88 v 0 q -3.48,0 -5.74,3.09 v 0 q 0.16,0.93 0.16,1.73 v 0 9.01 h -2.22 v -8.98 q 0,-4.85 -3.83,-4.85 v 0 q -3.79,0 -5.83,3.34 v 0 10.49 z"
     id="path22" /><path
     fill="#0c9cdb"
     opacity="1"
     d="m -58.28,11.02 v 0 l -0.58,-1.85 q 2.96,-1.27 6.32,-1.27 3.36,0 4.94,1.27 1.57,1.26 1.57,4.01 v 0 6.69 q 0,1.24 0.43,1.7 0.43,0.46 1.64,0.49 v 0 1.58 q -0.84,0.3 -1.7,0.3 v 0 q -0.96,0 -1.47,-0.6 -0.5,-0.6 -0.63,-2.05 v 0 q -2.47,2.65 -6.85,2.65 v 0 q -2.68,0 -4.01,-1.2 -1.32,-1.2 -1.32,-3.39 v 0 q 0,-2.04 1.32,-3.58 v 0 q 3.86,-1.17 10.4,-1.36 v 0 -1.14 q 0,-1.82 -0.99,-2.62 -0.98,-0.8 -3.48,-0.8 v 0 q -2.78,0 -5.59,1.17 z m 10.06,8.6 v 0 -3.57 q -5.21,0.09 -8.64,0.98 v 0 q -0.8,0.93 -0.8,2.13 v 0 q 0,2.84 3.27,2.84 v 0 q 3.76,0 6.17,-2.38 z"
     id="path24" /><path
     fill="#0c9cdb"
     opacity="1"
     d="M -35.85,23.64 V 8.21 h 1.88 l 0.19,2.84 q 1.02,-1.61 2.62,-2.38 1.6,-0.77 3.3,-0.77 v 0 q 2.84,0 4.47,2.04 v 0 l -1.54,1.42 q -1.26,-1.48 -3.3,-1.48 v 0 q -3.21,0 -5.4,3.33 v 0 10.43 z"
     id="path26" /><path
     fill="#0c9cdb"
     opacity="1"
     d="m -9.78,5.56 h -6.17 V 3.58 H -1.3 v 1.98 h -6.17 v 18.08 h -2.31 z"
     id="path28" /><path
     fill="#0c9cdb"
     opacity="1"
     d="M 5.98,23.64 V 8.21 h 1.88 l 0.19,2.84 Q 9.07,9.44 10.67,8.67 12.28,7.9 13.97,7.9 v 0 q 2.84,0 4.48,2.04 v 0 L 16.9,11.36 Q 15.64,9.88 13.6,9.88 v 0 q -3.21,0 -5.4,3.33 v 0 10.43 z"
     id="path30" /><path
     fill="#0c9cdb"
     opacity="1"
     d="m 27.45,11.02 v 0 L 26.87,9.17 q 2.96,-1.27 6.32,-1.27 3.37,0 4.94,1.27 1.57,1.26 1.57,4.01 v 0 6.69 q 0,1.24 0.43,1.7 0.44,0.46 1.64,0.49 v 0 1.58 q -0.83,0.3 -1.7,0.3 v 0 q -0.95,0 -1.46,-0.6 -0.51,-0.6 -0.64,-2.05 v 0 q -2.46,2.65 -6.84,2.65 v 0 q -2.69,0 -4.01,-1.2 -1.33,-1.2 -1.33,-3.39 v 0 q 0,-2.04 1.33,-3.58 v 0 q 3.85,-1.17 10.39,-1.36 v 0 -1.14 q 0,-1.82 -0.99,-2.62 -0.98,-0.8 -3.48,-0.8 v 0 q -2.78,0 -5.59,1.17 z m 10.06,8.6 v 0 -3.57 q -5.21,0.09 -8.64,0.98 v 0 q -0.8,0.93 -0.8,2.13 v 0 q 0,2.84 3.27,2.84 v 0 q 3.77,0 6.17,-2.38 z"
     id="path32" /><path
     fill="#0c9cdb"
     opacity="1"
     d="M 55,23.64 48.19,8.21 h 2.53 l 5.61,13.42 h 0.28 L 62.47,8.21 h 2.47 l -7.1,15.43 z"
     id="path34" /><path
     fill="#0c9cdb"
     opacity="1"
     d="m 87.12,16.42 v 0 H 74.16 q 0.16,2.77 1.96,4.18 1.81,1.4 4.49,1.4 v 0 q 3.21,0 5.37,-1.14 v 0 l 0.64,1.94 q -2.49,1.14 -6.13,1.14 v 0 q -4.11,0 -6.34,-2.14 -2.24,-2.14 -2.24,-5.85 v 0 q 0,-3.57 2.37,-5.81 2.38,-2.24 5.99,-2.24 v 0 q 3.52,0 5.31,1.73 1.79,1.73 1.79,4.6 v 0 q 0,1.2 -0.25,2.19 z M 74.19,14.53 v 0 h 11.05 q 0,-2.53 -1.25,-3.62 -1.25,-1.1 -3.97,-1.1 v 0 q -2.22,0 -3.9,1.25 -1.68,1.25 -1.93,3.47 z"
     id="path36" /><path
     fill="#0c9cdb"
     opacity="1"
     d="M 95.42,18.92 V 1.11 h 2.22 v 18.3 q 0,1.23 0.52,1.8 0.53,0.57 1.82,0.64 v 0 1.91 q -0.43,0.06 -0.74,0.06 v 0 q -3.82,0 -3.82,-4.9 z"
     id="path38" /></g><g
   transform="matrix(0.83846456,0,0,0.83846456,39.52039,36.28748)"
   id="g56">
<g
   id="g54">
		<g
   transform="translate(-1.6281738,-9.0800781)"
   id="g44">
<path
   style="opacity:1;fill:#0c9cdb;fill-rule:nonzero;stroke:none;stroke-width:1;stroke-linecap:butt;stroke-linejoin:miter;stroke-miterlimit:4;stroke-dasharray:none;stroke-dashoffset:0"
   transform="translate(-28.371826,-20.919922)"
   d="m 38.870606,20.919922 c 0,-5.789063 -4.709961,-10.499024 -10.499024,-10.499024 -5.789062,0 -10.498535,4.709961 -10.498535,10.499024 0,5.790039 4.709473,10.499023 10.498535,10.499023 5.789063,0 10.499024,-4.708984 10.499024,-10.499023 z m -10.499024,8.229492 c -4.537598,0 -8.228516,-3.692383 -8.228516,-8.229492 0,-4.538086 3.690918,-8.228516 8.228516,-8.228516 4.536621,0 8.228516,3.69043 8.228516,8.228516 0,4.537109 -3.691895,8.229492 -8.228516,8.229492 z"
   stroke-linecap="round"
   id="path42" />
</g>
		<g
   id="g48">
<path
   style="opacity:1;fill:#0c9cdb;fill-rule:nonzero;stroke:none;stroke-width:1;stroke-linecap:butt;stroke-linejoin:miter;stroke-miterlimit:4;stroke-dasharray:none;stroke-dashoffset:0"
   transform="translate(-30,-30)"
   d="m 44.943848,29.894531 c 1.631836,-3.972656 2.439453,-7.017578 2.439453,-9.257812 C 47.383301,10.15332 38.853516,1.625 28.371582,1.625 c -10.48291,0 -19.0107422,8.52832 -19.0107422,19.011719 0,10.100586 17.3295902,36.130859 18.0678712,37.234375 0.210449,0.314453 0.563965,0.503906 0.942871,0.503906 0.379394,0 0.73291,-0.189453 0.943848,-0.503906 0.02539,-0.03809 2.335937,-3.501953 5.258789,-8.322266 2.205566,4.021484 4.57666,7.607422 5.054199,8.322266 0.210938,0.314453 0.564453,0.503906 0.943359,0.503906 0.379395,0 0.73291,-0.189453 0.94336,-0.503906 0.93457,-1.396485 9.124023,-13.792969 9.124023,-18.921875 0,-3.983399 -2.331054,-7.424805 -5.695312,-9.054688 z M 28.371582,55.168945 C 24.707519,49.517578 11.630371,28.774414 11.630371,20.636719 c 0,-9.230469 7.509766,-16.7421878 16.741211,-16.7421878 9.230957,0 16.741211,7.5117188 16.741211,16.7421878 0,1.935547 -0.784668,4.798828 -2.311523,8.501953 -0.71875,-0.163086 -1.462403,-0.256836 -2.229493,-0.256836 -5.550781,0 -10.067871,4.516601 -10.067871,10.067383 0,2.004882 1.253907,5.120117 2.833496,8.253906 -2.067871,3.451172 -3.909668,6.337891 -4.96582,7.96582 z m 12.200195,-0.0059 C 37.756348,50.76656 32.774414,42.294881 32.774414,38.949178 c 0,-4.299805 3.498047,-7.797852 7.797363,-7.797852 4.299317,0 7.797852,3.498047 7.797852,7.797852 0,3.34375 -4.980957,11.816406 -7.797852,16.213867 z"
   stroke-linecap="round"
   id="path46" />
</g>
		<g
   transform="translate(10.572266,9.090332)"
   id="g52">
<path
   style="opacity:1;fill:#0c9cdb;fill-rule:nonzero;stroke:none;stroke-width:1;stroke-linecap:butt;stroke-linejoin:miter;stroke-miterlimit:4;stroke-dasharray:none;stroke-dashoffset:0"
   transform="translate(-40.572266,-39.090332)"
   d="m 40.571777,33.276367 c -3.205078,0 -5.813476,2.607422 -5.813476,5.814453 0,3.206055 2.608398,5.813477 5.813476,5.813477 3.206543,0 5.814453,-2.607422 5.814453,-5.813477 1e-6,-3.207031 -2.60791,-5.814453 -5.814453,-5.814453 z m 0,9.358399 c -1.954101,0 -3.543457,-1.588868 -3.543457,-3.543946 0,-1.954101 1.589356,-3.543945 3.543457,-3.543945 1.954102,0 3.544922,1.589844 3.544922,3.543945 0,1.955078 -1.59082,3.543946 -3.544922,3.543946 z"
   stroke-linecap="round"
   id="path50" />
</g>
</g>
</g>
<g
   transform="matrix(0.71345588,0,0,-1.4121148,35.67279,73.11817)"
   id="g118">
<line
   style="opacity:1;fill:#0c9cdb;fill-rule:nonzero;stroke:#0c9cdb;stroke-width:3;stroke-linecap:butt;stroke-linejoin:miter;stroke-miterlimit:4;stroke-dashoffset:0"
   x1="-50"
   y1="0"
   x2="50"
   y2="0"
   id="line116" />
</g>
<g
   transform="matrix(0.71345588,0,0,-1.4121148,35.67279,2.11817)"
   id="g122">
<line
   style="opacity:1;fill:#0c9cdb;fill-rule:nonzero;stroke:#0c9cdb;stroke-width:3;stroke-linecap:butt;stroke-linejoin:miter;stroke-miterlimit:4;stroke-dashoffset:0"
   x1="-50"
   y1="0"
   x2="50"
   y2="0"
   id="line120" />
</g>
</svg>
